<svg width="27" height="25" viewBox="0 0 27 25" fill="none" xmlns="http://www.w3.org/2000/svg">
<path d="M25.5319 22.625H1.06383C0.475399 22.625 0 23.0719 0 23.625V24.75C0 24.8875 0.119681 25 0.265957 25H26.3298C26.4761 25 26.5957 24.8875 26.5957 24.75V23.625C26.5957 23.0719 26.1203 22.625 25.5319 22.625ZM4.84375 20C4.91024 20 4.97673 19.9938 5.04322 19.9844L10.635 19.0625C10.7015 19.05 10.7646 19.0219 10.8112 18.975L24.9036 5.72812C24.9344 5.69921 24.9589 5.66487 24.9755 5.62707C24.9922 5.58927 25.0008 5.54874 25.0008 5.50781C25.0008 5.46688 24.9922 5.42636 24.9755 5.38855C24.9589 5.35075 24.9344 5.31641 24.9036 5.2875L19.3783 0.090625C19.3152 0.03125 19.232 0 19.1423 0C19.0525 0 18.9694 0.03125 18.9063 0.090625L4.81383 13.3375C4.76396 13.3844 4.73404 13.4406 4.72074 13.5031L3.74003 18.7594C3.70769 18.9268 3.71924 19.0991 3.77369 19.2613C3.82815 19.4236 3.92385 19.571 4.05253 19.6906C4.27194 19.8906 4.54787 20 4.84375 20V20Z" fill="#F2F2F2"/>
</svg>
